<svg xmlns="http://www.w3.org/2000/svg" viewBox="0 0 16 16" width="128" height="128" role="img" aria-label="GitHub">
  <path fill="#fff" d="M8 0C3.58 0 0 3.64 0 8.13c0 3.59 2.29 6.63 5.47 7.7.4.08.55-.18.55-.39 0-.19-.01-.82-.01-1.49-2.01.37-2.53-.5-2.69-.96-.09-.23-.48-.96-.82-1.15-.28-.15-.68-.52-.01-.53.63-.01 1.08.6 1.23.85.72 1.21 1.87.87 2.33.66.07-.53.28-.87.51-1.07-1.78-.2-3.64-.9-3.64-3.98 0-.88.31-1.6.82-2.16-.08-.2-.36-1.01.08-2.11 0 0 .67-.22 2.2.82.64-.18 1.32-.27 2-.27.68 0 1.36.09 2 .27 1.53-1.04 2.2-.82 2.2-.82.44 1.1.16 1.91.08 2.11.51.56.82 1.28.82 2.16 0 3.09-1.87 3.78-3.65 3.98.29.26.54.76.54 1.54 0 1.11-.01 2-.01 2.27 0 .21.15.47.55.39A8.14 8.14 0 0 0 16 8.13C16 3.64 12.42 0 8 0z"/>
</svg>
